<svg xmlns="http://www.w3.org/2000/svg" width="30" height="30" fill="none"><path fill="#014C69" d="M14.97 29.72c8.009 0 14.5-6.492 14.5-14.5 0-8.009-6.491-14.5-14.5-14.5C6.964.72.47 7.21.47 15.22c0 8.008 6.493 14.5 14.5 14.5Z"/><path fill="#C8DAEA" d="M12.312 21.865c-.47 0-.39-.177-.552-.624l-1.381-4.547 10.633-6.308"/><path fill="#A9C9DD" d="M12.313 21.865c.362 0 .522-.165.724-.362l1.934-1.88-2.412-1.454"/><path fill="url(#a)" d="m12.558 18.169 5.843 4.317c.667.368 1.149.178 1.315-.619l2.378-11.209c.244-.976-.372-1.419-1.01-1.13L7.117 14.915c-.953.383-.948.915-.174 1.152l3.585 1.118 8.298-5.235c.391-.237.75-.11.456.152"/><defs><linearGradient id="a" x1="13.155" x2="14.704" y1="16.11" y2="21.122" gradientUnits="userSpaceOnUse"><stop stop-color="#EFF7FC"/><stop offset="1" stop-color="#fff"/></linearGradient></defs></svg>