<svg xmlns="http://www.w3.org/2000/svg" width="30" height="30" fill="none"><g fill="#014C69" clip-path="url(#a)"><path fill-rule="evenodd" d="M15.12.183C7.11.183.62 6.675.62 14.683c0 8.009 6.491 14.5 14.5 14.5 8.007 0 14.5-6.491 14.5-14.5 0-8.008-6.493-14.5-14.5-14.5ZM11.93 6.997c.825-.038 1.089-.047 3.189-.047h-.003c2.101 0 2.364.01 3.189.047.823.038 1.385.168 1.878.36.51.197.94.46 1.37.89.43.43.694.862.893 1.37.19.493.32 1.054.359 1.878.037.825.046 1.088.046 3.189 0 2.1-.01 2.363-.046 3.188-.039.823-.17 1.385-.36 1.877-.198.508-.462.94-.892 1.37-.43.43-.86.694-1.37.892-.491.191-1.054.322-1.877.36-.825.037-1.088.046-3.188.046s-2.364-.01-3.188-.047c-.824-.038-1.386-.168-1.878-.359a3.787 3.787 0 0 1-1.37-.893 3.79 3.79 0 0 1-.891-1.37c-.191-.491-.322-1.053-.36-1.877-.037-.824-.046-1.087-.046-3.187 0-2.1.01-2.364.046-3.19.037-.822.168-1.384.36-1.876.198-.509.462-.94.892-1.37.43-.43.862-.694 1.37-.892.492-.191 1.054-.321 1.877-.36Z" clip-rule="evenodd"/><path fill-rule="evenodd" d="M14.425 8.344h.694c2.065 0 2.31.007 3.125.044.754.035 1.163.16 1.436.267.36.14.618.307.889.578.27.27.438.528.578.89.106.272.232.68.267 1.435.037.815.045 1.06.045 3.124s-.008 2.309-.045 3.124c-.035.754-.16 1.163-.267 1.435-.14.361-.308.618-.578.889-.271.27-.528.438-.89.578-.271.106-.681.232-1.435.267-.815.037-1.06.045-3.125.045s-2.31-.008-3.125-.046c-.754-.034-1.163-.16-1.436-.266a2.396 2.396 0 0 1-.89-.578 2.398 2.398 0 0 1-.578-.89c-.106-.272-.232-.68-.266-1.435-.037-.815-.045-1.06-.045-3.125s.008-2.309.045-3.124c.034-.754.16-1.163.266-1.436.14-.36.308-.619.579-.89a2.4 2.4 0 0 1 .89-.578c.272-.106.681-.232 1.435-.267.713-.032.99-.042 2.431-.043v.002Zm4.822 1.284a.928.928 0 1 0 0 1.856.928.928 0 0 0 0-1.857Zm-8.1 5.056a3.972 3.972 0 1 1 7.944 0 3.972 3.972 0 0 1-7.943 0Z" clip-rule="evenodd"/><path d="M15.12 12.106a2.578 2.578 0 1 1 0 5.155 2.578 2.578 0 0 1 0-5.155Z"/></g><defs><clipPath id="a"><path fill="#fff" d="M.62.183h29v29h-29z"/></clipPath></defs></svg>