<svg width="23" height="23" viewBox="0 0 23 23" fill="none" xmlns="http://www.w3.org/2000/svg">
<path fill-rule="evenodd" clip-rule="evenodd" d="M11.8678 3.88619C7.81775 3.88619 4.53451 7.16943 4.53451 11.2195C4.53451 15.2696 7.81775 18.5529 11.8678 18.5529C15.9179 18.5529 19.2012 15.2696 19.2012 11.2195C19.2012 7.16943 15.9179 3.88619 11.8678 3.88619ZM2.70117 11.2195C2.70117 6.15691 6.80523 2.05286 11.8678 2.05286C16.9304 2.05286 21.0345 6.15691 21.0345 11.2195C21.0345 16.2821 16.9304 20.3862 11.8678 20.3862C6.80523 20.3862 2.70117 16.2821 2.70117 11.2195ZM11.8678 5.71952C12.3741 5.71952 12.7845 6.12993 12.7845 6.63619V10.8398L15.266 13.3213C15.624 13.6793 15.624 14.2597 15.266 14.6177C14.908 14.9757 14.3276 14.9757 13.9697 14.6177L11.2197 11.8677C11.0477 11.6958 10.9512 11.4626 10.9512 11.2195V6.63619C10.9512 6.12993 11.3616 5.71952 11.8678 5.71952Z" fill="#75C9EA"/>
</svg>
