<svg xmlns="http://www.w3.org/2000/svg" width="30" height="30" fill="none"><path fill="#014C69" d="M15.193 29.72c8.008 0 14.5-6.492 14.5-14.5 0-8.009-6.492-14.5-14.5-14.5S.693 7.21.693 15.22c0 8.008 6.492 14.5 14.5 14.5Z"/><path fill="#FDFDFD" fill-rule="evenodd" d="M15.671 23.287h-.003a8.614 8.614 0 0 1-4.12-1.05l-4.571 1.2L8.2 18.967a8.606 8.606 0 0 1-1.151-4.31c.002-4.754 3.87-8.622 8.622-8.622a8.566 8.566 0 0 1 6.1 2.529 8.57 8.57 0 0 1 2.522 6.1c-.002 4.752-3.868 8.62-8.622 8.622Zm-3.912-2.61.262.154c1.1.654 2.361.999 3.647 1h.003c3.95 0 7.165-3.215 7.166-7.167a7.124 7.124 0 0 0-2.096-5.07 7.118 7.118 0 0 0-5.067-2.102c-3.953 0-7.168 3.215-7.17 7.166A7.15 7.15 0 0 0 9.6 18.472l.17.271-.723 2.645 2.712-.712Zm7.96-4.156c.151.072.253.121.296.194.054.09.054.521-.126 1.024-.18.504-1.04.963-1.454 1.025-.371.055-.84.078-1.357-.086a12.35 12.35 0 0 1-1.228-.454c-2.02-.872-3.385-2.83-3.643-3.2l-.037-.052-.002-.003c-.114-.152-.878-1.171-.878-2.226 0-.992.488-1.513.712-1.752l.042-.045a.791.791 0 0 1 .574-.27c.144 0 .288.001.413.008h.049c.125 0 .282-.002.436.37.06.142.146.354.238.577.186.451.39.95.426 1.022.054.108.09.234.018.377l-.03.062c-.054.11-.093.191-.185.298a7.932 7.932 0 0 0-.11.133c-.075.09-.149.18-.213.244-.108.108-.22.224-.095.44.126.216.558.921 1.199 1.492.688.615 1.287.874 1.59 1.006.06.025.107.046.142.064.216.108.341.09.467-.054s.539-.63.682-.845c.144-.215.288-.18.485-.108s1.257.593 1.472.701l.118.058Z" clip-rule="evenodd"/></svg>