<svg width="30" height="30" viewBox="0 0 30 30" fill="none" xmlns="http://www.w3.org/2000/svg">
<path d="M14.9707 29.7195C22.9788 29.7195 29.4707 23.2276 29.4707 15.2195C29.4707 7.21135 22.9788 0.719482 14.9707 0.719482C6.96257 0.719482 0.470703 7.21135 0.470703 15.2195C0.470703 23.2276 6.96257 29.7195 14.9707 29.7195Z" fill="#014C69"/>
<path d="M12.3122 21.8653C11.8425 21.8653 11.9223 21.6879 11.7603 21.2406L10.3789 16.6943L21.0122 10.3861" fill="#C8DAEA"/>
<path d="M12.3125 21.8654C12.675 21.8654 12.8352 21.6996 13.0375 21.5029L14.9708 19.6229L12.5592 18.1687" fill="#A9C9DD"/>
<path d="M12.558 18.169L18.4015 22.4863C19.0683 22.8542 19.5496 22.6637 19.7157 21.8672L22.0943 10.6583C22.3378 9.68199 21.7221 9.23916 21.0842 9.52877L7.11708 14.9144C6.16369 15.2968 6.16925 15.8287 6.94329 16.0657L10.5276 17.1844L18.8256 11.9493C19.2173 11.7118 19.5768 11.8395 19.2817 12.1014" fill="url(#paint0_linear_215_786)"/>
<defs>
<linearGradient id="paint0_linear_215_786" x1="13.1547" y1="16.1102" x2="14.704" y2="21.1217" gradientUnits="userSpaceOnUse">
<stop stop-color="#EFF7FC"/>
<stop offset="1" stop-color="white"/>
</linearGradient>
</defs>
</svg>
