<svg xmlns="http://www.w3.org/2000/svg" width="30" height="30" fill="none"><path fill="#014C69" d="M.545 15.22c0-8.009 6.492-14.5 14.5-14.5s14.5 6.491 14.5 14.5c0 8.008-6.492 14.5-14.5 14.5s-14.5-6.492-14.5-14.5Z"/><path fill="#fff" d="M15.804 19.978s.28-.03.423-.181c.13-.138.126-.399.126-.399s-.018-1.217.558-1.397c.567-.177 1.296 1.177 2.069 1.698.584.393 1.027.307 1.027.307l2.066-.028s1.08-.065.568-.9c-.042-.068-.298-.616-1.535-1.744-1.296-1.18-1.122-.989.438-3.03.95-1.243 1.33-2.002 1.21-2.326-.112-.31-.81-.228-.81-.228l-2.326.014s-.173-.023-.3.052c-.125.073-.206.245-.206.245s-.368.961-.859 1.78c-1.036 1.725-1.45 1.817-1.619 1.71-.394-.25-.296-1.004-.296-1.54 0-1.672.26-2.37-.503-2.55-.252-.06-.438-.1-1.085-.106-.83-.008-1.532.003-1.93.193-.265.127-.469.411-.344.427.153.02.501.093.686.339.238.319.23 1.033.23 1.033s.137 1.97-.32 2.213c-.313.168-.743-.174-1.667-1.74a14.432 14.432 0 0 1-.83-1.689s-.068-.165-.192-.254c-.149-.108-.357-.141-.357-.141l-2.21.014s-.331.009-.453.15c-.108.126-.008.386-.008.386s1.73 3.974 3.689 5.977c1.796 1.835 3.836 1.715 3.836 1.715h.924Z"/></svg>