<svg xmlns="http://www.w3.org/2000/svg" width="30" height="30" fill="none"><g clip-path="url(#a)"><path fill="#014C69" d="M29.766 14.22c0 8.008-6.492 14.5-14.5 14.5s-14.5-6.492-14.5-14.5c0-8.009 6.492-14.5 14.5-14.5s14.5 6.491 14.5 14.5Z"/><path fill="#fff" fill-rule="evenodd" d="M7.904 14.22c0-4.06 3.303-7.361 7.361-7.361 4.06 0 7.361 3.302 7.361 7.36 0 4.06-3.302 7.361-7.36 7.361-4.06 0-7.362-3.302-7.362-7.36Zm14.073.289c.007-.096.013-.192.013-.29a6.72 6.72 0 0 0-3.163-5.694c-.02.01-.041.024-.064.038-.105.064-.239.146-.297.087-.076-.076-.254-.186-.254-.186.153-.102-.304-.27-.304-.27l-.532.042h-.38a.746.746 0 0 1-.134-.022c-.07-.015-.15-.032-.22-.032-.089 0-.265.057-.397.1a2.593 2.593 0 0 1-.136.041c-.04.01-.1.036-.165.065-.097.043-.205.09-.266.09-.1 0-.253.191-.253.191s-.177.324-.025.273c.152-.05.355-.053.38.023l.048.133c.02.052.04.105.053.144.025.076.38.1.38.1s.05-.126.127-.228c.075-.101.151-.228.151-.228s.127.254.153.33c.024.076-.051.304-.051.304s-.279.177-.355.177c-.077 0-.508-.38-.508-.38-.152.05-.278.127-.278.127-.178.177-.355.33-.355.33s-.153.05-.254.126c-.046.034-.115.056-.183.078-.083.026-.165.052-.198.1-.126.176.049.303.049.303l-.156.203-.109.076-.37.076-.222.038c.025.076-.024.317-.024.317v.43s.365.1.442.1l.04.002c.089.004.239.01.325-.077.1-.101.266-.33.316-.405a.478.478 0 0 1 .272-.203.445.445 0 0 0 .169-.1c.026-.022.048-.041.08-.052.076-.025.375-.076.375-.076s.176.127.251.178c.009.006.01.015.013.026.006.036.017.096.258.154v.2l.337-.025-.153-.203-.026-.006-.293-.298-.022-.228s.312.178.413.228c.102.05.318.203.318.203l.15.354.203.247c-.068-.084-.236-.323.026-.323 0 0 .24.025.317 0a1.57 1.57 0 0 0 .245-.101c.05-.025.041-.08.032-.144-.01-.068-.022-.146.03-.211a.642.642 0 0 1 .309-.203c.076-.025.331-.152.331-.152l.28.05c-.125.102-.277.254-.176.229.102-.026.33.101.431.177.102.076.026.254.026.254s-.279-.026-.456-.051c-.177-.025-.456.025-.456.025l-.228.127s-.152.05-.127.177c.025.127.127.28.228.405l.065.088c.07.098.13.18.188.14.077-.05.33-.202.33-.202s-.051.177-.025.304c.025.126.025.304.025.304s-.253 0-.177.051c.057.038.132.157.185.24.017.026.031.05.042.064.254.355.786 1.14.837 1.242.02.043.029.095.037.147.01.07.021.14.064.182.152.152.456 0 .532-.05.023-.016.064-.04.112-.066.105-.059.24-.136.293-.188a.768.768 0 0 1 .06-.057l.06-.04.084-.055c.151-.101.252-.177.177-.253-.076-.076-.228-.355-.228-.355-.23.05-.457-.076-.457-.152s-.202-.38-.202-.38.025-.05.202.05c.068.039.131.092.193.143.1.084.195.162.29.162.14 0 .215.043.367.13l.037.022c.098.056.166.12.223.174.047.044.087.082.132.105.102.05.254.254.254.254s.152.354.177.456c.011.044.046.126.081.21.02.045.039.091.055.133l.006-.093ZM9.9 10.254a.163.163 0 0 1-.027.08c-.032.058-.068.124.027.3.177.33.025.482.025.482s-.431.304-.507.355c-.076.05-.279.33-.152.253.126-.076.278-.152.152.05l-.132.205a3.926 3.926 0 0 0-.273.455 1.396 1.396 0 0 1-.114.193c-.088.135-.19.293-.19.39 0 .067-.02.162-.04.26-.025.124-.05.252-.036.324.017.088-.04.348-.083.455a6.671 6.671 0 0 1 1.305-3.811c.026.002.045.009.045.009Zm2.962-2.309a6.737 6.737 0 0 0-2.148 1.337v.002c-.012.03-.022.057-.03.083-.025.102.179.025.179.025l.227.102.28-.102s.076-.152.252-.278c.128-.091.151-.13.182-.182a.72.72 0 0 1 .047-.072c.037-.05.038-.05.069-.081a9.28 9.28 0 0 0 .26-.273c.33-.356.507-.355.507-.355s.096-.104.175-.206Zm.89 1.929-.101-.152.1-.228.245.098v-.453l.233-.126.194.279.298.33-.198.151-.527.101v-.268l-.244.268Zm3.548 2.458s-.194-.123-.253-.076c-.254.203-.837.076-.962.025-.128-.051-.204-.127-.204-.203 0-.076-.114-.444-.114-.444s-.247.044-.323.044c-.076 0-.275-.08-.275-.08s-.253.025-.354.076c-.1.05-.303.126-.379.151-.076.026-.278.05-.278.05-.228-.1-.405.152-.457.254-.02.04-.048.073-.074.104-.04.046-.077.088-.077.15 0 .101-.178.253-.254.303l-.064.04c-.112.07-.305.188-.366.29a1.407 1.407 0 0 0-.178.406c-.025.126-.025.228-.025.405 0 .063-.003.117-.006.167-.006.09-.01.166.006.265.025.15.279.531.38.658.101.127.228.279.355.355.126.076.304.228.304.228s.101.152.303.076c.085-.032.17-.05.252-.069.116-.025.228-.05.332-.109.178-.1.457-.228.457-.076 0 .152.1.254.252.203l.08-.028c.146-.055.322-.12.3.028-.015.113.01.246.03.355.011.062.021.116.021.153 0 .02 0 .04-.002.06-.004.08-.008.157.053.218.023.024.06.052.098.083.085.067.181.144.181.196 0 .075.025.329.076.43.05.102.1.254.05.356-.05.1-.153.38-.153.38s-.053.227-.027.303a.75.75 0 0 0 .199.305c.073.073.093.154.111.23a.396.396 0 0 0 .058.15c.077.101.154.405.154.405l.011.254v.228s.56-.076.66-.102c.102-.025.498-.203.6-.304a.46.46 0 0 0 .086-.126c.026-.049.051-.097.12-.153l.358-.279-.024-.38.305-.404.229-.229s.202-.278.177-.38c-.025-.101-.076-.608-.076-.608s.102-.228.178-.33c.027-.036.044-.076.063-.118.032-.075.068-.156.165-.236.128-.107.22-.232.292-.33l.037-.05.016-.022c.08-.106.216-.287.263-.358.05-.076.101-.304.101-.304l-.457.076c-.088-.148-.272-.399-.424-.608a6.841 6.841 0 0 1-.235-.33 2.28 2.28 0 0 1-.177-.482c-.016-.063-.072-.198-.118-.307-.027-.065-.05-.12-.06-.149a1.862 1.862 0 0 0-.19-.29v-.001c-.026-.037-.049-.068-.062-.089-.03-.044-.103-.08-.178-.117a.992.992 0 0 1-.152-.086c-.102-.076-.735-.203-.735-.203Zm2.662 4.892a2.238 2.238 0 0 1-.092.53c-.022.082-.046.17-.06.23-.026.101-.153.304-.228.355-.03.02-.07.057-.11.096a.635.635 0 0 1-.169.132c-.076.026-.127-.178-.102-.279.026-.101.153-.38.153-.38s.025-.152.05-.253c.026-.101.33-.228.33-.228l.203-.38.002.01c.006.028.023.106.023.167ZM8.858 15.805a.373.373 0 0 0-.145-.09 6.719 6.719 0 0 0 1.971 3.416.19.19 0 0 0 .133-.01c.027-.01.055-.021.095-.021.1 0 .253-.128.253-.128l-.102-.304.102-.38.127-.354s0-.253-.127-.28c-.067-.012-.161-.081-.247-.144-.078-.057-.148-.108-.184-.108a.62.62 0 0 1-.279-.102c-.025-.017-.06-.034-.096-.052-.07-.035-.149-.075-.182-.125a1.913 1.913 0 0 1-.199-.386c-.028-.078-.04-.11-.207-.299-.122-.137-.152-.173-.19-.197-.025-.015-.054-.026-.114-.056-.073-.037-.123-.073-.169-.107a.71.71 0 0 0-.16-.096.847.847 0 0 1-.28-.177Z" clip-rule="evenodd"/></g><defs><clipPath id="a"><path fill="#fff" d="M.867.22h29v29h-29z"/></clipPath></defs></svg>