<svg xmlns="http://www.w3.org/2000/svg" width="37" height="37" fill="none"><path fill="url(#a)" d="M18.5 37C28.717 37 37 28.717 37 18.5S28.717 0 18.5 0 0 8.283 0 18.5 8.283 37 18.5 37Z"/><path fill="#C8DAEA" d="M15.108 26.98c-.6 0-.497-.227-.704-.798l-1.762-5.8 13.566-8.049"/><path fill="#A9C9DD" d="M15.108 26.98c.463 0 .667-.212.925-.463l2.467-2.399-3.077-1.855"/><path fill="url(#b)" d="m15.423 22.263 7.456 5.508c.85.47 1.464.227 1.676-.79l3.035-14.3c.31-1.246-.475-1.811-1.289-1.442l-17.82 6.872c-1.216.488-1.209 1.166-.221 1.469l4.573 1.427 10.587-6.68c.5-.302.958-.14.582.195"/><defs><linearGradient id="a" x1="13.877" x2="4.627" y1="1.543" y2="23.125" gradientUnits="userSpaceOnUse"><stop stop-color="#37AEE2"/><stop offset="1" stop-color="#1E96C8"/></linearGradient><linearGradient id="b" x1="16.184" x2="18.161" y1="19.636" y2="26.03" gradientUnits="userSpaceOnUse"><stop stop-color="#EFF7FC"/><stop offset="1" stop-color="#fff"/></linearGradient></defs></svg>