<svg xmlns="http://www.w3.org/2000/svg" width="20" height="20" fill="none"><path fill="#37AEE2" fill-rule="evenodd" d="M8.296 3.914a3.167 3.167 0 1 0 0 6.333 3.167 3.167 0 0 0 0-6.333ZM3.546 7.08a4.75 4.75 0 1 1 9.5 0 4.75 4.75 0 0 1-9.5 0Zm11.875 2.375c.437 0 .792.354.792.791v.792h.792a.792.792 0 0 1 0 1.583h-.792v.792a.792.792 0 0 1-1.583 0v-.792h-.792a.792.792 0 1 1 0-1.583h.792v-.792c0-.437.354-.791.791-.791Zm-9.896 5.541c-.997 0-1.979.961-1.979 2.375a.792.792 0 1 1-1.583 0c0-2.083 1.499-3.958 3.562-3.958h5.542c2.064 0 3.563 1.875 3.563 3.958a.792.792 0 1 1-1.584 0c0-1.414-.982-2.375-1.979-2.375H5.525Z" clip-rule="evenodd"/></svg>