<svg xmlns="http://www.w3.org/2000/svg" width="20" height="20" fill="none"><path fill="#37AEE2" fill-rule="evenodd" d="M3.942 3.8c-.241 1.67-.48 6.185 3.067 9.732 3.547 3.546 8.06 3.308 9.732 3.067v-3.42l-3.511-.586-.53 1.06a.792.792 0 0 1-.709.438V13.3v.791h-.044a2.615 2.615 0 0 1-.34-.032 4.93 4.93 0 0 1-.856-.206c-.696-.232-1.598-.688-2.486-1.577-.889-.888-1.345-1.79-1.577-2.486a4.926 4.926 0 0 1-.206-.856 3.493 3.493 0 0 1-.032-.367V8.55l.791-.001H6.45c0-.265.132-.512.352-.66l1.84-1.226L7.498 3.8H3.942Zm4.15 5.134 1.429-.953c.623-.415.87-1.21.592-1.905L8.967 3.212a1.583 1.583 0 0 0-1.47-.996H3.9c-.72 0-1.396.5-1.514 1.28-.269 1.776-.635 7.018 3.503 11.155 4.137 4.137 9.38 3.772 11.155 3.503.78-.118 1.28-.795 1.28-1.514v-3.461c0-.774-.56-1.435-1.323-1.562l-3.512-.586a1.583 1.583 0 0 0-1.677.854l-.274.549a3.727 3.727 0 0 1-.287-.083c-.491-.164-1.173-.5-1.868-1.195-.695-.694-1.03-1.376-1.194-1.867a3.628 3.628 0 0 1-.099-.355Z" clip-rule="evenodd"/></svg>