<svg xmlns="http://www.w3.org/2000/svg" width="20" height="20" fill="none"><path fill="#37AEE2" fill-rule="evenodd" d="M9.712 3.547a4.75 4.75 0 0 0-4.75 4.75c0 .814.288 1.723.777 2.666.486.936 1.142 1.854 1.814 2.67a25.551 25.551 0 0 0 2.16 2.302l.312-.3a25.56 25.56 0 0 0 1.847-2.002c.672-.816 1.328-1.734 1.813-2.67.49-.942.777-1.852.777-2.666a4.75 4.75 0 0 0-4.75-4.75Zm0 13.459-.515.6-.002-.001-.004-.003-.014-.013a7.237 7.237 0 0 1-.235-.21 27.117 27.117 0 0 1-2.612-2.74c-.714-.867-1.443-1.879-1.996-2.947-.55-1.06-.955-2.23-.955-3.395a6.333 6.333 0 0 1 12.667 0c0 1.166-.405 2.334-.955 3.395-.554 1.068-1.283 2.08-1.997 2.947a27.116 27.116 0 0 1-2.847 2.95l-.014.013-.004.003v.001c-.001 0-.002 0-.517-.6Zm0 0-.515.6a.792.792 0 0 0 1.03 0l-.515-.6Zm0-10.292a1.583 1.583 0 1 0 0 3.167 1.583 1.583 0 0 0 0-3.167ZM6.546 8.297a3.167 3.167 0 1 1 6.333 0 3.167 3.167 0 0 1-6.333 0Z" clip-rule="evenodd"/></svg>