<svg xmlns="http://www.w3.org/2000/svg" width="30" height="30" fill="none"><path fill="#25D366" d="M14.666 29.395c8.008 0 14.5-6.492 14.5-14.5s-6.492-14.5-14.5-14.5-14.5 6.492-14.5 14.5 6.492 14.5 14.5 14.5Z"/><path fill="#FDFDFD" fill-rule="evenodd" d="M15.144 22.962h-.004a8.614 8.614 0 0 1-4.12-1.05l-4.57 1.2 1.222-4.468a8.607 8.607 0 0 1-1.15-4.31c.001-4.755 3.87-8.622 8.622-8.622a8.566 8.566 0 0 1 6.099 2.528 8.57 8.57 0 0 1 2.523 6.1c-.002 4.753-3.868 8.62-8.622 8.622Zm-3.912-2.61.261.155c1.1.653 2.362.998 3.648.999h.003c3.95 0 7.164-3.215 7.166-7.166a7.123 7.123 0 0 0-2.097-5.07 7.117 7.117 0 0 0-5.066-2.102c-3.953 0-7.168 3.215-7.17 7.166a7.15 7.15 0 0 0 1.096 3.814l.17.27-.724 2.645 2.713-.711Zm7.96-4.156c.15.073.252.122.296.194.053.09.053.522-.126 1.025-.18.503-1.04.962-1.454 1.024-.371.056-.841.079-1.357-.085-.313-.1-.714-.232-1.228-.454-2.02-.872-3.385-2.83-3.643-3.2a2.642 2.642 0 0 0-.038-.053l-.001-.002c-.114-.152-.878-1.172-.878-2.227 0-.992.487-1.512.712-1.752l.042-.045a.791.791 0 0 1 .574-.27c.144 0 .288.002.413.008h.048c.126 0 .282 0 .437.37.06.143.146.354.238.578.185.45.39.95.426 1.022.054.107.09.233.018.377l-.03.061a1.22 1.22 0 0 1-.185.298 8.834 8.834 0 0 0-.11.133c-.075.09-.149.18-.214.245-.107.107-.22.224-.094.44.126.215.558.92 1.198 1.492.689.614 1.287.874 1.59 1.005.06.026.108.047.143.064.215.108.341.09.467-.054.125-.143.538-.629.682-.844.144-.216.287-.18.485-.108.197.072 1.256.593 1.472.7.042.022.081.04.118.058Z" clip-rule="evenodd"/></svg>