<svg xmlns="http://www.w3.org/2000/svg" width="25" height="25" fill="none"><path fill="#999" fill-rule="evenodd" d="M3.998 4.488c-.305 2.111-.606 7.813 3.874 12.293 4.48 4.48 10.182 4.18 12.293 3.874v-4.32l-4.436-.739-.67 1.34a1 1 0 0 1-.894.552v-1 1h-.055l-.101-.006a4.43 4.43 0 0 1-.329-.035 6.23 6.23 0 0 1-1.081-.26c-.88-.293-2.019-.87-3.14-1.992-1.123-1.122-1.7-2.26-1.992-3.14a6.225 6.225 0 0 1-.26-1.082 4.417 4.417 0 0 1-.042-.463v-.02c0-.001 0-.002 1-.002h-1a1 1 0 0 1 .446-.832l2.324-1.55-1.447-3.618h-4.49Zm5.24 6.486 1.807-1.204a2 2 0 0 0 .747-2.406l-1.447-3.619a2 2 0 0 0-1.857-1.257H3.946c-.909 0-1.764.631-1.913 1.617-.34 2.243-.801 8.864 4.425 14.09 5.226 5.227 11.848 4.765 14.09 4.425.986-.149 1.617-1.004 1.617-1.913v-4.372a2 2 0 0 0-1.671-1.972l-4.436-.74a2 2 0 0 0-2.117 1.079l-.347.693a4.71 4.71 0 0 1-.363-.105c-.62-.207-1.48-.631-2.359-1.509-.878-.878-1.301-1.739-1.508-2.359a4.594 4.594 0 0 1-.125-.448Z" clip-rule="evenodd"/></svg>