<svg xmlns="http://www.w3.org/2000/svg" width="40" height="40" fill="none"><path fill="#C8DAEA" d="M16.333 29.167c-.648 0-.538-.245-.762-.862l-1.905-6.27 14.667-8.702"/><path fill="#A9C9DD" d="M16.332 29.167c.5 0 .72-.229 1-.5l2.667-2.593-3.327-2.006"/><path fill="url(#a)" d="m16.672 24.068 8.06 5.955c.92.508 1.584.245 1.813-.854l3.281-15.46c.336-1.347-.513-1.958-1.393-1.558L9.168 19.579c-1.315.528-1.308 1.261-.24 1.588l4.944 1.543 11.445-7.22c.54-.328 1.037-.152.63.21"/><defs><linearGradient id="a" x1="17.496" x2="19.633" y1="21.229" y2="28.141" gradientUnits="userSpaceOnUse"><stop stop-color="#EFF7FC"/><stop offset="1" stop-color="#fff"/></linearGradient></defs></svg>